<?xml version="1.0" encoding="UTF-8"?>
<svg width="110px" height="20px" viewBox="0 0 110 20" version="1.1" xmlns="http://www.w3.org/2000/svg" xmlns:xlink="http://www.w3.org/1999/xlink">
    <!-- Generator: Sketch 61.2 (89653) - https://sketch.com -->
    <title>ic_logo_BelleVie</title>
    <desc>Created with Sketch.</desc>
    <g stroke="none" stroke-width="1" fill="none" fill-rule="evenodd">
        <g id="New_B2B_Homepage_1.0" transform="translate(-83.000000, -29.000000)" fill="#000000" fill-rule="nonzero">
            <g id="ic_logo_BelleVie" transform="translate(83.000000, 29.000000)">
                <path d="M8.60869565,18.9391304 C10.2003478,18.9391304 11.5547826,18.3805217 12.672,17.2633043 C13.7892174,16.146087 14.3478261,14.7916522 14.3478261,13.2 C14.3478261,11.6083478 13.7892174,10.253913 12.672,9.13669565 C13.4066087,8.15721739 13.773913,7.02469565 13.773913,5.73913043 C13.773913,4.14747826 13.2153043,2.79304348 12.098087,1.67582609 C10.9808696,0.558608696 9.62643478,-2.17487863e-13 8.03478261,-2.17487863e-13 L8.03478261,-2.17487863e-13 L1.08743932e-13,-2.17487863e-13 L1.08743932e-13,18.9391304 L8.60869565,18.9391304 Z M8.03478261,7.46086957 L4.0173913,7.46086957 L4.0173913,4.0173913 L8.03478261,4.0173913 C8.50921739,4.0173913 8.91478261,4.18573913 9.25147826,4.52243478 C9.58817391,4.85913043 9.75652174,5.26469565 9.75652174,5.73913043 C9.75652174,6.21356522 9.58817391,6.61913043 9.25147826,6.95582609 C8.91478261,7.29252174 8.50921739,7.46086957 8.03478261,7.46086957 L8.03478261,7.46086957 Z M8.60869565,14.9217391 L4.0173913,14.9217391 L4.0173913,11.4782609 L8.60869565,11.4782609 C9.08313043,11.4782609 9.48869565,11.6466087 9.8253913,11.9833043 C10.162087,12.32 10.3304348,12.7255652 10.3304348,13.2 C10.3304348,13.6744348 10.162087,14.08 9.8253913,14.4166957 C9.48869565,14.7533913 9.08313043,14.9217391 8.60869565,14.9217391 L8.60869565,14.9217391 Z M25.2292174,19.5130435 C27.4483478,19.5130435 29.346087,18.7248696 30.9224348,17.1485217 C31.3356522,16.7353043 31.6876522,16.2991304 31.9784348,15.84 L31.9784348,15.84 L28.6038261,13.6591304 C28.4507826,13.8886957 28.2747826,14.1029565 28.0758261,14.301913 C27.2953043,15.0977391 26.3464348,15.4956522 25.2292174,15.4956522 C24.861913,15.4956522 24.5175652,15.4497391 24.1961739,15.357913 L24.1961739,15.357913 L32.1850435,7.392 C31.8330435,6.82573913 31.4121739,6.29008696 30.9224348,5.78504348 C29.346087,4.224 27.4483478,3.44347826 25.2292174,3.44347826 C23.010087,3.44347826 21.1161739,4.22782609 19.5474783,5.79652174 C17.9787826,7.36521739 17.1944348,9.25913043 17.1944348,11.4782609 C17.1944348,13.6973913 17.9787826,15.5913043 19.5474783,17.16 C21.1161739,18.7286957 23.010087,19.5130435 25.2292174,19.5130435 Z M21.3495652,12.5113043 C21.2577391,12.189913 21.2118261,11.8455652 21.2118261,11.4782609 C21.2118261,10.3610435 21.605913,9.41217391 22.394087,8.63165217 C23.1822609,7.85113043 24.1273043,7.46086957 25.2292174,7.46086957 C25.5965217,7.46086957 25.9485217,7.49913043 26.2852174,7.57565217 L26.2852174,7.57565217 L21.3495652,12.5113043 Z M39.6,18.9391304 L39.6,-2.17487863e-13 L35.5826087,-2.17487863e-13 L35.5826087,18.9391304 L39.6,18.9391304 Z M48.2086957,18.9391304 L48.2086957,-2.17487863e-13 L44.1913043,-2.17487863e-13 L44.1913043,18.9391304 L48.2086957,18.9391304 Z M59.664,19.5130435 C61.8831304,19.5130435 63.7808696,18.7248696 65.3572174,17.1485217 C65.7704348,16.7353043 66.1224348,16.2991304 66.4132174,15.84 L66.4132174,15.84 L63.0386087,13.6591304 C62.8855652,13.8886957 62.7095652,14.1029565 62.5106087,14.301913 C61.730087,15.0977391 60.7812174,15.4956522 59.664,15.4956522 C59.2966957,15.4956522 58.9523478,15.4497391 58.6309565,15.357913 L58.6309565,15.357913 L66.6198261,7.392 C66.2678261,6.82573913 65.8469565,6.29008696 65.3572174,5.78504348 C63.7808696,4.224 61.8831304,3.44347826 59.664,3.44347826 C57.4448696,3.44347826 55.5509565,4.22782609 53.9822609,5.79652174 C52.4135652,7.36521739 51.6292174,9.25913043 51.6292174,11.4782609 C51.6292174,13.6973913 52.4135652,15.5913043 53.9822609,17.16 C55.5509565,18.7286957 57.4448696,19.5130435 59.664,19.5130435 Z M55.7843478,12.5113043 C55.6925217,12.189913 55.6466087,11.8455652 55.6466087,11.4782609 C55.6466087,10.3610435 56.0406957,9.41217391 56.8288696,8.63165217 C57.6170435,7.85113043 58.562087,7.46086957 59.664,7.46086957 C60.0313043,7.46086957 60.3833043,7.49913043 60.72,7.57565217 L60.72,7.57565217 L55.7843478,12.5113043 Z M77.9144348,18.9391304 L84.8243478,-2.17487863e-13 L80.5544348,-2.17487863e-13 L76.3304348,11.5241739 L72.1293913,-2.17487863e-13 L67.8594783,-2.17487863e-13 L74.7693913,18.9391304 L77.9144348,18.9391304 Z M91.2521739,6.12173913 L91.2521739,3.25217391 L87.2347826,3.25217391 L87.2347826,6.12173913 L91.2521739,6.12173913 Z M91.2521739,18.9391304 L91.2521739,8.4173913 L87.2347826,8.4173913 L87.2347826,18.9391304 L91.2521739,18.9391304 Z M102.707478,19.5130435 C104.926609,19.5130435 106.824348,18.7248696 108.400696,17.1485217 C108.813913,16.7353043 109.165913,16.2991304 109.456696,15.84 L109.456696,15.84 L106.082087,13.6591304 C105.929043,13.8886957 105.753043,14.1029565 105.554087,14.301913 C104.773565,15.0977391 103.824696,15.4956522 102.707478,15.4956522 C102.340174,15.4956522 101.995826,15.4497391 101.674435,15.357913 L101.674435,15.357913 L109.663304,7.392 C109.311304,6.82573913 108.890435,6.29008696 108.400696,5.78504348 C106.824348,4.224 104.926609,3.44347826 102.707478,3.44347826 C100.488348,3.44347826 98.5944348,4.22782609 97.0257391,5.79652174 C95.4570435,7.36521739 94.6726957,9.25913043 94.6726957,11.4782609 C94.6726957,13.6973913 95.4570435,15.5913043 97.0257391,17.16 C98.5944348,18.7286957 100.488348,19.5130435 102.707478,19.5130435 Z M98.8278261,12.5113043 C98.736,12.189913 98.690087,11.8455652 98.690087,11.4782609 C98.690087,10.3610435 99.0841739,9.41217391 99.8723478,8.63165217 C100.660522,7.85113043 101.605565,7.46086957 102.707478,7.46086957 C103.074783,7.46086957 103.426783,7.49913043 103.763478,7.57565217 L103.763478,7.57565217 L98.8278261,12.5113043 Z"></path>
            </g>
        </g>
    </g>
</svg>
