<svg xmlns="http://www.w3.org/2000/svg" xmlns:xlink="http://www.w3.org/1999/xlink" width="110px" height="23px" viewBox="0 0 110 23" version="1.1">
    <!-- Generator: Sketch 61.2 (89653) - https://sketch.com -->
    <title>ic_b2b_logotypes</title>
    <desc>Created with Sketch.</desc>
    <g id="Symbols" stroke="none" stroke-width="1" fill="none" fill-rule="evenodd">
        <g id="Components/B2B/top_nav" transform="translate(-72.000000, -28.000000)" fill="#333333" fill-rule="nonzero">
            <g id="top_nav">
                <g id="ic_b2b_logotypes" transform="translate(71.990000, 28.580000)">
                    <path d="M10.92,21.84 C14.79,21.84 18.18,19.89 19.95,16.89 L16.38,14.82 C15.39,16.65 13.32,17.79 10.92,17.79 C6.81,17.79 4.11,14.94 4.11,10.92 C4.11,6.87 6.81,4.02 10.92,4.02 C13.32,4.02 15.36,5.16 16.38,7.02 L19.95,4.95 C18.15,1.95 14.76,-1.77635684e-15 10.92,-1.77635684e-15 C4.56,-1.77635684e-15 -7.17648163e-13,4.77 -7.17648163e-13,10.92 C-7.17648163e-13,17.04 4.56,21.84 10.92,21.84 Z M34.22,21.84 C40.28,21.84 45.14,17.04 45.14,10.92 C45.14,4.77 40.28,-1.77635684e-15 34.22,-1.77635684e-15 C28.16,-1.77635684e-15 23.33,4.77 23.33,10.92 C23.33,17.04 28.16,21.84 34.22,21.84 Z M34.22,17.79 C30.41,17.79 27.44,14.94 27.44,10.92 C27.44,6.87 30.41,4.02 34.22,4.02 C38.03,4.02 41,6.87 41,10.92 C41,14.94 38.03,17.79 34.22,17.79 Z M59.98,21.84 C66.04,21.84 70.9,17.04 70.9,10.92 C70.9,4.77 66.04,-1.77635684e-15 59.98,-1.77635684e-15 C53.92,-1.77635684e-15 49.09,4.77 49.09,10.92 C49.09,17.04 53.92,21.84 59.98,21.84 Z M59.98,17.79 C56.17,17.79 53.2,14.94 53.2,10.92 C53.2,6.87 56.17,4.02 59.98,4.02 C63.79,4.02 66.76,6.87 66.76,10.92 C66.76,14.94 63.79,17.79 59.98,17.79 Z M79.95,21.42 L79.95,11.58 L87.45,21.42 L92.22,21.42 L84.15,10.62 L91.92,0.42 L87.15,0.42 L79.95,9.69 L79.95,0.42 L75.81,0.42 L75.81,21.42 L79.95,21.42 Z M102.23,21.84 C106.7,21.84 109.85,19.44 109.85,15.51 C109.85,11.22 106.31,10.11 102.98,9.06 C99.8,8.1 98.99,7.41 98.99,6.12 C98.99,4.92 100.01,4.02 101.75,4.02 C103.88,4.02 105.02,5.13 105.77,6.72 L109.25,4.71 C107.84,1.77 105.2,-1.77635684e-15 101.75,-1.77635684e-15 C98.15,-1.77635684e-15 94.85,2.28 94.85,6.24 C94.85,10.23 97.97,11.58 101.18,12.51 C104.3,13.41 105.71,14.01 105.71,15.57 C105.71,16.74 104.84,17.79 102.35,17.79 C99.74,17.79 98.27,16.53 97.52,14.58 L93.98,16.65 C95.12,19.77 97.94,21.84 102.23,21.84 Z"/>
                </g>
            </g>
        </g>
    </g>
</svg>
