<?xml version="1.0" encoding="UTF-8"?>
<svg width="53px" height="30px" viewBox="0 0 53 30" version="1.1" xmlns="http://www.w3.org/2000/svg" xmlns:xlink="http://www.w3.org/1999/xlink">
    <!-- Generator: Sketch 63.1 (92452) - https://sketch.com -->
    <title>ic_360_wh_background</title>
    <desc>Created with Sketch.</desc>
    <g id="Page-1" stroke="none" stroke-width="1" fill="none" fill-rule="evenodd">
        <g id="New_VR_1.0" transform="translate(-75.000000, -249.000000)">
            <g id="ic_360_wh_background" transform="translate(75.000000, 249.000000)">
                <g>
                    <ellipse id="Oval" fill-opacity="0.4" fill="#FFFFFF" cx="26.5" cy="15" rx="26.5" ry="15"></ellipse>
                    <g id="ic_360" transform="translate(7.000000, 4.000000)" fill="#4C5666">
                        <g>
                            <path d="M16,20.2613368 C9.38,20.2613368 4,18.357536 4,16.014941 C4,15.3001311 4.5,14.6207077 5.4,14.0332896 L2.48,13 C0.92,13.8705111 0,14.9038008 0,16.014941 C0,19.1431193 7.16,21.6768021 16,21.6768021 L16,23.8 L24,20.9690695 L16,18.1381389 L16,20.2613368 L16,20.2613368 Z" id="Shape"></path>
                            <path d="M23,2.1231979 L23,-2.22044605e-14 L15,2.83093054 L23,5.66186107 L23,3.53866317 C29.62,3.53866317 35,5.44246396 35,7.78505898 C35,8.49986894 34.5,9.17929227 33.6,9.76671035 L36.52,10.8 C38.08,9.92948886 39,8.89619921 39,7.78505898 C39,4.65688073 31.84,2.1231979 23,2.1231979 L23,2.1231979 Z" id="Path"></path>
                            <path d="M10.849,15.998 C11.465,15.998 12.004,15.8935 12.466,15.6845 C12.928,15.4755 13.2836667,15.1858333 13.533,14.8155 C13.7823333,14.4451667 13.907,14.018 13.907,13.534 C13.907,12.94 13.6961667,12.4596667 13.2745,12.093 C12.8528333,11.7263333 12.2863333,11.51 11.575,11.444 L11.575,11.444 L11.168,11.4 L13.522,9.145 L13.522,8.232 L8.374,8.232 L8.385,9.486 L11.63,9.486 L9.562,11.488 L9.562,12.379 L10.728,12.379 C11.2853333,12.379 11.7143333,12.4798333 12.015,12.6815 C12.3156667,12.8831667 12.466,13.1746667 12.466,13.556 C12.466,13.93 12.3138333,14.227 12.0095,14.447 C11.7051667,14.667 11.2853333,14.777 10.75,14.777 C10.3613333,14.777 9.98,14.7091667 9.606,14.5735 C9.232,14.4378333 8.891,14.2416667 8.583,13.985 L8.583,13.985 L8,15.129 C8.35933333,15.393 8.79383333,15.6038333 9.3035,15.7615 C9.81316667,15.9191667 10.3283333,15.998 10.849,15.998 Z M18.098,15.998 C18.648,15.998 19.1301667,15.8916667 19.5445,15.679 C19.9588333,15.4663333 20.2796667,15.1638333 20.507,14.7715 C20.7343333,14.3791667 20.848,13.919 20.848,13.391 C20.848,12.643 20.6243333,12.0453333 20.177,11.598 C19.7296667,11.1506667 19.1246667,10.927 18.362,10.927 C17.8926667,10.927 17.4875,11.0131667 17.1465,11.1855 C16.8055,11.3578333 16.536,11.6126667 16.338,11.95 C16.316,11.1506667 16.4791667,10.52 16.8275,10.058 C17.1758333,9.596 17.6946667,9.365 18.384,9.365 C18.6846667,9.365 18.9835,9.40716667 19.2805,9.4915 C19.5775,9.57583333 19.8396667,9.69866667 20.067,9.86 L20.067,9.86 L20.628,8.76 C20.3126667,8.57666667 19.9441667,8.43183333 19.5225,8.3255 C19.1008333,8.21916667 18.692,8.166 18.296,8.166 C17.614,8.166 17.02,8.33283333 16.514,8.6665 C16.008,9.00016667 15.6175,9.47316667 15.3425,10.0855 C15.0675,10.6978333 14.93,11.411 14.93,12.225 C14.93,13.0096667 15.0565,13.6843333 15.3095,14.249 C15.5625,14.8136667 15.9273333,15.2463333 16.404,15.547 C16.8806667,15.8476667 17.4453333,15.998 18.098,15.998 Z M18.032,14.755 C17.702,14.755 17.4251667,14.6908333 17.2015,14.5625 C16.9778333,14.4341667 16.811,14.2691667 16.701,14.0675 C16.591,13.8658333 16.5396667,13.655 16.547,13.435 C16.5396667,13.0463333 16.6753333,12.72 16.954,12.456 C17.2326667,12.192 17.6066667,12.06 18.076,12.06 C18.5086667,12.06 18.8515,12.1791667 19.1045,12.4175 C19.3575,12.6558333 19.484,12.9766667 19.484,13.38 C19.484,13.8126667 19.352,14.15 19.088,14.392 C18.824,14.634 18.472,14.755 18.032,14.755 Z M25.259,15.987 C26.3223333,15.987 27.14,15.6496667 27.712,14.975 C28.284,14.3003333 28.57,13.336 28.57,12.082 C28.57,10.8206667 28.284,9.85266667 27.712,9.178 C27.14,8.50333333 26.3223333,8.166 25.259,8.166 C24.1956667,8.166 23.378,8.50333333 22.806,9.178 C22.234,9.85266667 21.948,10.8206667 21.948,12.082 C21.948,13.336 22.234,14.3003333 22.806,14.975 C23.378,15.6496667 24.1956667,15.987 25.259,15.987 Z M25.259,14.832 C24.6503333,14.832 24.1993333,14.6083333 23.906,14.161 C23.6126667,13.7136667 23.466,13.0206667 23.466,12.082 C23.466,11.136 23.6126667,10.4411667 23.906,9.9975 C24.1993333,9.55383333 24.6503333,9.332 25.259,9.332 C25.8676667,9.332 26.3186667,9.55383333 26.612,9.9975 C26.9053333,10.4411667 27.052,11.136 27.052,12.082 C27.052,13.0206667 26.9053333,13.7136667 26.612,14.161 C26.3186667,14.6083333 25.8676667,14.832 25.259,14.832 Z M31.309,9.541 C31.661,9.541 31.9653333,9.41633333 32.222,9.167 C32.4786667,8.91766667 32.607,8.62066667 32.607,8.276 C32.607,7.924 32.4786667,7.62333333 32.222,7.374 C31.9653333,7.12466667 31.661,7 31.309,7 C30.957,7 30.6545,7.12466667 30.4015,7.374 C30.1485,7.62333333 30.022,7.924 30.022,8.276 C30.022,8.62066667 30.1485,8.91766667 30.4015,9.167 C30.6545,9.41633333 30.957,9.541 31.309,9.541 Z M31.309,8.925 C31.1183333,8.925 30.9551667,8.86083333 30.8195,8.7325 C30.6838333,8.60416667 30.616,8.452 30.616,8.276 C30.616,8.09266667 30.6838333,7.93683333 30.8195,7.8085 C30.9551667,7.68016667 31.1183333,7.616 31.309,7.616 C31.4996667,7.616 31.6646667,7.68016667 31.804,7.8085 C31.9433333,7.93683333 32.013,8.09266667 32.013,8.276 C32.013,8.452 31.9433333,8.60416667 31.804,8.7325 C31.6646667,8.86083333 31.4996667,8.925 31.309,8.925 Z" id="360°-copy"></path>
                        </g>
                    </g>
                </g>
            </g>
        </g>
    </g>
</svg>