<?xml version="1.0" encoding="UTF-8"?>
<svg width="26px" height="36px" viewBox="0 0 16 26" version="1.1" xmlns="http://www.w3.org/2000/svg" xmlns:xlink="http://www.w3.org/1999/xlink">
    <!-- Generator: Sketch 63.1 (92452) - https://sketch.com -->
    <title>ic_ar_new</title>
    <desc>Created with Sketch.</desc>
    <g id="V5" stroke="none" stroke-width="1" fill="none" fill-rule="evenodd">
        <g id="Mobile/MVP_Dsk_Created_list_1.0" transform="translate(-277.000000, -405.000000)" fill="#4C5666">
            <g id="ic_ar_new" transform="translate(277.000000, 404.000000)">
                <g>
                    <path d="M6.96666667,0.871180218 L2.25591518,5.14547837 L6.96666667,9.41977653 L6.96666667,6.45552011 C8.07001629,6.5606014 9.06195759,7.00966647 9.80643347,7.68516631 C10.643329,8.44452305 11.1666667,9.49162581 11.1666667,10.6500655 C11.1666667,11.4929969 10.8906002,12.2858639 10.4044112,12.9321972 L12.3925395,14.7361245 C13.3330029,13.600783 13.9,12.1867065 13.9,10.6500655 C13.9,8.76896172 13.0647314,7.0638995 11.7058165,5.83088874 C10.475371,4.71444458 8.81459581,3.98622859 6.96666667,3.87421361 L6.96666667,0.871180218 Z" id="Shape" stroke="#FFFFFF" transform="translate(8.200000, 8.000000) rotate(-34.000000) translate(-8.200000, -8.000000) "></path>
                    <path d="M4.00746051,13.2638755 C3.06699708,14.399217 2.5,15.8132935 2.5,17.3499345 C2.5,19.2310383 3.3352686,20.9361005 4.69418347,22.1691113 C5.92462898,23.2855554 7.58540419,24.0137714 9.43333333,24.1257864 L9.43333333,27.1288198 L14.1440848,22.8545216 L9.43333333,18.5802235 L9.43333333,21.5444799 C8.32998371,21.4393986 7.33804241,20.9903335 6.59356653,20.3148337 C5.75667103,19.5554769 5.23333333,18.5083742 5.23333333,17.3499345 C5.23333333,16.5070031 5.50939979,15.7141361 5.99558877,15.0678028 L4.00746051,13.2638755 Z" id="Path" stroke="#FFFFFF" transform="translate(8.200000, 20.000000) rotate(-37.000000) translate(-8.200000, -20.000000) "></path>
                    <path d="M4.418,16 L4.79,15.112 L6.842,15.112 L7.214,16 L8.078,16 L6.26,11.8 L5.426,11.8 L3.584,16 L4.418,16 Z M6.554,14.422 L5.078,14.422 L5.822,12.658 L6.554,14.422 Z M9.392,16 L9.392,14.764 L10.34,14.764 C10.408,14.764 10.458,14.762 10.49,14.758 L10.49,14.758 L11.216,16 L12.134,16 L11.21,14.608 C11.482,14.492 11.689,14.318 11.831,14.086 C11.973,13.854 12.044,13.574 12.044,13.246 C12.044,12.786 11.896,12.43 11.6,12.178 C11.304,11.926 10.884,11.8 10.34,11.8 L10.34,11.8 L8.588,11.8 L8.588,16 L9.392,16 Z M10.34,14.056 L9.392,14.056 L9.392,12.502 L10.34,12.502 C10.644,12.502 10.876,12.566 11.036,12.694 C11.196,12.822 11.276,13.014 11.276,13.27 C11.276,13.53 11.196,13.726 11.036,13.858 C10.876,13.99 10.644,14.056 10.34,14.056 L10.34,14.056 Z" id="AR" fill-rule="nonzero"></path>
                </g>
            </g>
        </g>
    </g>
</svg>