<svg id="Capa_1" enable-background="new 0 0 512 512" height="30px" viewBox="0 0 512 512" width="30px" xmlns="http://www.w3.org/2000/svg"><g><path d="m502.003 421.279-70.005-40.451v-168.737c0-6.998-3.676-13.639-9.994-17.318l-146.004-84.364v-80.909c0-11.046-8.954-20-20-20s-20 8.955-20 20v80.909l-146.004 84.365c-6.437 3.742-9.994 10.484-9.994 17.318v168.737l-70.005 40.45c-9.563 5.526-12.837 17.76-7.311 27.324 5.536 9.58 17.774 12.83 27.323 7.311l69.993-40.444 145.992 84.358c6.142 3.567 13.886 3.558 20.011 0l145.992-84.358 69.993 40.444c9.545 5.516 21.786 2.272 27.323-7.311 5.527-9.564 2.254-21.798-7.31-27.324zm-266.003 26.576-115.998-67.027v-134.081l115.998 67.027zm20-168.723-116.022-67.041 116.022-67.041 116.022 67.041zm135.998 101.696-115.998 67.027v-134.081l115.998-67.027z"/></g></svg>