<?xml version="1.0" encoding="UTF-8"?>
<svg width="14px" height="14px" viewBox="0 0 14 14" version="1.1" xmlns="http://www.w3.org/2000/svg" xmlns:xlink="http://www.w3.org/1999/xlink">
    <!-- Generator: Sketch 62 (91390) - https://sketch.com -->
    <title>ic_fullscreen</title>
    <desc>Created with Sketch.</desc>
    <g id="Page-1" stroke="none" stroke-width="1" fill="none" fill-rule="evenodd">
        <g id="New_VR_1.1" transform="translate(-641.000000, -716.000000)" fill="#197C93">
            <path d="M643,725 L641,725 L641,730 L646,730 L646,728 L643,728 L643,725 L643,725 Z M641,721 L643,721 L643,718 L646,718 L646,716 L641,716 L641,721 L641,721 Z M653,728 L650,728 L650,730 L655,730 L655,725 L653,725 L653,728 L653,728 Z M650,716 L650,718 L653,718 L653,721 L655,721 L655,716 L650,716 L650,716 Z" id="ic_fullscreen"></path>
        </g>
    </g>
</svg>