<svg xmlns="http://www.w3.org/2000/svg" width="25px" height="21px" viewBox="0 0 25 21" version="1.1">
    <g xmlns="http://www.w3.org/2000/svg" id="Page-1" stroke="none" stroke-width="1" fill-rule="evenodd">
        <g id="Mobile-Copy" transform="translate(-313.000000, -131.000000)">
            <g id="ic_add_list" transform="translate(313.000000, 132.000000)">
                <g>
                    <g id="ic_list" transform="translate(0.000000, 7.714286)">
                        <g id="Shape">
                            <path d="M0,6.85714286 L2.28571429,6.85714286 L2.28571429,4.57142857 L0,4.57142857 L0,6.85714286 L0,6.85714286 Z M0,11.4285714 L2.28571429,11.4285714 L2.28571429,9.14285714 L0,9.14285714 L0,11.4285714 L0,11.4285714 Z M0,2.28571429 L2.28571429,2.28571429 L2.28571429,0 L0,0 L0,2.28571429 L0,2.28571429 Z M4.57142857,6.85714286 L20.5714286,6.85714286 L20.5714286,4.57142857 L4.57142857,4.57142857 L4.57142857,6.85714286 L4.57142857,6.85714286 Z M4.57142857,11.4285714 L20.5714286,11.4285714 L20.5714286,9.14285714 L4.57142857,9.14285714 L4.57142857,11.4285714 L4.57142857,11.4285714 Z M4.57142857,0 L4.57142857,2.28571429 L20.5714286,2.28571429 L20.5714286,0 L4.57142857,0 L4.57142857,0 Z"/>
                        </g>
                    </g>
                    <g id="ic_add" transform="translate(13.714286, -0.000000)">
                        <g>
                            <circle id="Oval" stroke="#FFFFFF" cx="5.14285714" cy="5.14285714" r="5.14285714"/>
                            <polygon id="+" fill="#FFFFFF" fill-rule="nonzero" points="8.55542857 4.93028571 8.55542857 5.92571429 5.896 5.92571429 5.896 8.57028571 4.96 8.57028571 4.96 5.92571429 2.28571429 5.92571429 2.28571429 4.93028571 4.96 4.93028571 4.96 2.28571429 5.896 2.28571429 5.896 4.93028571"/>
                        </g>
                    </g>
                </g>
            </g>
        </g>
    </g>
</svg>
