 <svg width="17" height="17" viewBox="0 0 17 17" fill="none" xmlns="http://www.w3.org/2000/svg">
<path d="M14.722 14.722H2.278V2.278H7.834V0.5H2.278C1.80685 0.501319 1.35538 0.689067 1.02222 1.02222C0.689067 1.35538 0.501319 1.80685 0.5 2.278V14.722C0.501319 15.1931 0.689067 15.6446 1.02222 15.9778C1.35538 16.3109 1.80685 16.4987 2.278 16.5H14.722C15.1931 16.4987 15.6446 16.3109 15.9778 15.9778C16.3109 15.6446 16.4987 15.1931 16.5 14.722V9.167H14.722V14.722ZM9.833 0.5V2.278H13.478L4.5 11.256L5.744 12.5L14.722 3.522V7.167H16.5V0.5H9.833Z" fill="#197C93"/>
</svg>
