<svg width="20" height="20" viewBox="0 0 20 20" fill="none" xmlns="http://www.w3.org/2000/svg">
<path d="M16.1917 10.8167C16.225 10.55 16.25 10.2833 16.25 9.99999C16.25 9.71666 16.225 9.44999 16.1917 9.18332L17.95 7.80832C18.1083 7.68332 18.15 7.45832 18.05 7.27499L16.3833 4.39166C16.2833 4.20832 16.0583 4.14166 15.875 4.20832L13.8 5.04166C13.3667 4.70832 12.9 4.43332 12.3917 4.22499L12.075 2.01666C12.05 1.81666 11.875 1.66666 11.6667 1.66666H8.33332C8.12499 1.66666 7.94999 1.81666 7.92499 2.01666L7.60832 4.22499C7.09999 4.43332 6.63332 4.71666 6.19999 5.04166L4.12499 4.20832C3.93332 4.13332 3.71666 4.20832 3.61666 4.39166L1.94999 7.27499C1.84165 7.45832 1.89165 7.68332 2.04999 7.80832L3.80832 9.18332C3.77499 9.44999 3.74999 9.72499 3.74999 9.99999C3.74999 10.275 3.77499 10.55 3.80832 10.8167L2.04999 12.1917C1.89165 12.3167 1.84999 12.5417 1.94999 12.725L3.61666 15.6083C3.71666 15.7917 3.94165 15.8583 4.12499 15.7917L6.19999 14.9583C6.63332 15.2917 7.09999 15.5667 7.60832 15.775L7.92499 17.9833C7.94999 18.1833 8.12499 18.3333 8.33332 18.3333H11.6667C11.875 18.3333 12.05 18.1833 12.075 17.9833L12.3917 15.775C12.9 15.5667 13.3667 15.2833 13.8 14.9583L15.875 15.7917C16.0667 15.8667 16.2833 15.7917 16.3833 15.6083L18.05 12.725C18.15 12.5417 18.1083 12.3167 17.95 12.1917L16.1917 10.8167V10.8167ZM9.99999 12.9167C8.39166 12.9167 7.08332 11.6083 7.08332 9.99999C7.08332 8.39166 8.39166 7.08332 9.99999 7.08332C11.6083 7.08332 12.9167 8.39166 12.9167 9.99999C12.9167 11.6083 11.6083 12.9167 9.99999 12.9167Z" />
</svg>
