<svg height="512pt" viewBox="0 -96 512 512" width="512pt" xmlns="http://www.w3.org/2000/svg"><path d="m448.800781 319.199219h-92.464843c-16.867188 0-32.75-6.5625-44.726563-18.484375l-32.132813-32.132813c-6.183593-6.214843-14.722656-9.753906-23.476562-9.753906-8.757812 0-17.296875 3.539063-23.429688 9.703125l-32.15625 32.15625c-12 11.949219-27.882812 18.511719-44.75 18.511719h-92.464843c-34.351563 0-63.199219-27.765625-63.199219-63.199219v-192.800781c0-35.292969 28.71875-63.199219 63.199219-63.199219h385.601562c34.351563 0 63.199219 27.769531 63.199219 63.199219v192.800781c0 35.296875-28.71875 63.199219-63.199219 63.199219zm-192.800781-90.371094c16.683594 0 32.972656 6.761719 44.695312 18.542969l32.109376 32.113281c6.285156 6.253906 14.648437 9.714844 23.53125 9.714844h92.464843c18.039063 0 33.199219-14.601563 33.199219-33.199219v-192.800781c0-18.605469-15.171875-33.199219-33.199219-33.199219h-385.601562c-18.039063 0-33.199219 14.601562-33.199219 33.199219v192.800781c0 18.609375 15.171875 33.199219 33.199219 33.199219h92.464843c8.878907 0 17.246094-3.460938 23.558594-9.746094l32.132813-32.128906c11.671875-11.734375 27.960937-18.496094 44.644531-18.496094zm0 0"/><path d="m143.53125 222.800781c-34.847656 0-63.199219-28.351562-63.199219-63.199219 0-34.847656 28.351563-63.203124 63.199219-63.203124 34.851562 0 63.203125 28.355468 63.203125 63.203124 0 34.847657-28.351563 63.199219-63.203125 63.199219zm0-96.402343c-18.304688 0-33.199219 14.894531-33.199219 33.203124 0 18.304688 14.894531 33.199219 33.199219 33.199219 18.308594 0 33.203125-14.894531 33.203125-33.199219 0-18.308593-14.894531-33.203124-33.203125-33.203124zm0 0"/><path d="m368.46875 222.800781c-34.851562 0-63.203125-28.351562-63.203125-63.199219 0-34.847656 28.351563-63.203124 63.203125-63.203124 34.847656 0 63.199219 28.355468 63.199219 63.203124 0 34.847657-28.351563 63.199219-63.199219 63.199219zm0-96.402343c-18.308594 0-33.203125 14.894531-33.203125 33.203124 0 18.304688 14.894531 33.199219 33.203125 33.199219 18.304688 0 33.199219-14.894531 33.199219-33.199219 0-18.308593-14.894531-33.203124-33.199219-33.203124zm0 0"/></svg>