<?xml version="1.0" encoding="UTF-8"?>
<svg width="24px" height="18px" viewBox="0 0 24 18" version="1.1" xmlns="http://www.w3.org/2000/svg" xmlns:xlink="http://www.w3.org/1999/xlink">
    <!-- Generator: Sketch 63.1 (92452) - https://sketch.com -->
    <title>ic_vr_new copy</title>
    <desc>Created with Sketch.</desc>
    <g id="V5" stroke="none" stroke-width="1" fill="none" fill-rule="evenodd">
        <g id="New_VR_1.0" transform="translate(-306.000000, -95.000000)" fill="#FFFFFF" stroke="#197C93" stroke-width="2">
            <g id="ic_vr_new" transform="translate(308.000000, 97.000000)">
                <path d="M18,-1 C18.8284271,-1 19.5784271,-0.664213562 20.1213203,-0.121320344 C20.6642136,0.421572875 21,1.17157288 21,2 L21,2 L21,11.6 C21,12.4284271 20.6642136,13.1784271 20.1213203,13.7213203 C19.5784271,14.2642136 18.8284271,14.6 17.9997923,14.6 L17.9997923,14.6 L12.4685829,14.598851 L10.7364658,9.47894463 L7.66622918,14.5988553 L2,14.6 C1.17157288,14.6 0.421572875,14.2642136 -0.121320344,13.7213203 C-0.664213562,13.1784271 -1,12.4284271 -1,11.6 L-1,11.6 L-1,2 C-1,1.17157288 -0.664213562,0.421572875 -0.121320344,-0.121320344 C0.421572875,-0.664213562 1.17157288,-1 2,-1 L2,-1 Z M14.6,4.76666667 C14.2631195,4.76666667 13.9562544,4.89374868 13.7348408,5.10509797 C13.5306573,5.3000004 13.4,5.56802727 13.4,5.86666667 C13.4,6.16530606 13.5306573,6.43333294 13.7348408,6.62823536 C13.9562544,6.83958465 14.2631195,6.96666667 14.6,6.96666667 C14.9368805,6.96666667 15.2437456,6.83958465 15.4651592,6.62823536 C15.6693427,6.43333294 15.8,6.16530606 15.8,5.86666667 C15.8,5.56802727 15.6693427,5.3000004 15.4651592,5.10509797 C15.2437456,4.89374868 14.9368805,4.76666667 14.6,4.76666667 Z M5.4,4.76666667 C5.06311949,4.76666667 4.75625437,4.89374868 4.53484083,5.10509797 C4.33065733,5.3000004 4.2,5.56802727 4.2,5.86666667 C4.2,6.16530606 4.33065733,6.43333294 4.53484083,6.62823536 C4.75625437,6.83958465 5.06311949,6.96666667 5.4,6.96666667 C5.73688051,6.96666667 6.04374563,6.83958465 6.26515917,6.62823536 C6.46934267,6.43333294 6.6,6.16530606 6.6,5.86666667 C6.6,5.56802727 6.46934267,5.3000004 6.26515917,5.10509797 C6.04374563,4.89374868 5.73688051,4.76666667 5.4,4.76666667 Z"/>
            </g>
        </g>
    </g>
</svg>
