<svg width="1000" height="480" style="fill:#FFFFFF;" xmlns="http://www.w3.org/2000/svg" xmlns:svg="http://www.w3.org/2000/svg" xmlns:xlink="http://www.w3.org/1999/xlink">
 <!-- Created with SVG-edit - http://svg-edit.googlecode.com/ -->
 <defs>
  <symbol viewBox="0 0 24 24" id="svg_1" xmlns="http://www.w3.org/2000/svg">
   <path id="svg_4" d="m20,7l-4,0l0,-3c0,-2.209 -1.791,-4 -4,-4s-4,1.791 -4,4l0,3l-4,0l-2,17l20,0l-2,-17zm-11,-3c0,-1.654 1.346,-3 3,-3s3,1.346 3,3l0,3l-6,0l0,-3zm-4.751,18l1.529,-13l2.222,0l0,1.5c0,0.276 0.224,0.5 0.5,0.5s0.5,-0.224 0.5,-0.5l0,-1.5l6,0l0,1.5c0,0.276 0.224,0.5 0.5,0.5s0.5,-0.224 0.5,-0.5l0,-1.5l2.222,0l1.529,13l-15.502,0z"/>
  </symbol>
  <symbol id="svg_8" xmlns:xlink="http://www.w3.org/1999/xlink" xmlns:svg="http://www.w3.org/2000/svg" xmlns="http://www.w3.org/2000/svg">
   <!-- Created with SVG-edit - http://svg-edit.googlecode.com/ -->
   <defs>
    <symbol viewBox="0 0 24 24" id="svg_7" xmlns="http://www.w3.org/2000/svg">
     <path fill="#FFFFFF" d="m20,7l-4,0l0,-3c0,-2.209 -1.791,-4 -4,-4s-4,1.791 -4,4l0,3l-4,0l-2,17l20,0l-2,-17zm-11,-3c0,-1.654 1.346,-3 3,-3s3,1.346 3,3l0,3l-6,0l0,-3zm-4.751,18l1.529,-13l2.222,0l0,1.5c0,0.276 0.224,0.5 0.5,0.5s0.5,-0.224 0.5,-0.5l0,-1.5l6,0l0,1.5c0,0.276 0.224,0.5 0.5,0.5s0.5,-0.224 0.5,-0.5l0,-1.5l2.222,0l1.529,13l-15.502,0z" id="svg_11"/>
    </symbol>
    <pattern height="100" width="100" y="0" x="0" patternUnits="userSpaceOnUse" id="gridpattern">
     <image height="100" width="100" y="0" x="0"/>
    </pattern>
   </defs>
   <g id="svg_12">
    <title>Layer 1</title>
    <use id="svg_6" xlink:href="#svg_7" transform="matrix(6.858508887724738,0,0,5.221997683211311,-0.30210759045752955,-0.3423293832612271) " y="0.58645" x="-0.72902"/>
    <g id="svg_5"/>
   </g>
  </symbol>
  <symbol id="svg_16" xmlns="http://www.w3.org/2000/svg" xmlns:svg="http://www.w3.org/2000/svg" xmlns:xlink="http://www.w3.org/1999/xlink">
   <!-- Created with SVG-edit - http://svg-edit.googlecode.com/ -->
   <defs>
    <symbol id="svg_15" viewBox="0 0 24 24" xmlns="http://www.w3.org/2000/svg">
     <path id="svg_19" d="m20,7l-4,0l0,-3c0,-2.209 -1.791,-4 -4,-4s-4,1.791 -4,4l0,3l-4,0l-2,17l20,0l-2,-17zm-11,-3c0,-1.654 1.346,-3 3,-3s3,1.346 3,3l0,3l-6,0l0,-3zm-4.751,18l1.529,-13l2.222,0l0,1.5c0,0.276 0.224,0.5 0.5,0.5s0.5,-0.224 0.5,-0.5l0,-1.5l6,0l0,1.5c0,0.276 0.224,0.5 0.5,0.5s0.5,-0.224 0.5,-0.5l0,-1.5l2.222,0l1.529,13l-15.502,0z" fill="#FFFFFF"/>
    </symbol>
    <pattern height="100" width="100" y="0" x="0" patternUnits="userSpaceOnUse" id="gridpattern">
     <image height="100" width="100" y="0" x="0"/>
    </pattern>
   </defs>
   <g id="svg_20">
    <title>Layer 1</title>
    <use x="-0.72902" y="0.58645" transform="matrix(6.858508887724738,0,0,5.221997683211311,-0.30210759045752955,-0.3423293832612271) " xlink:href="#svg_15" id="svg_14"/>
    <g id="svg_13"/>
   </g>
  </symbol>
  <pattern height="100" width="100" y="0" x="0" patternUnits="userSpaceOnUse" id="gridpattern">
   <image height="100" width="100" y="0" x="0"/>
  </pattern>
  <symbol id="svg_24" height="25" width="25" xmlns:xlink="http://www.w3.org/1999/xlink" xmlns:svg="http://www.w3.org/2000/svg" xmlns="http://www.w3.org/2000/svg">
   <!-- Created with SVG-edit - http://svg-edit.googlecode.com/ -->
   <defs>
    <symbol viewBox="0 0 24 24" id="svg_23" xmlns="http://www.w3.org/2000/svg">
     <path fill="#FFFFFF" d="m20,7l-4,0l0,-3c0,-2.209 -1.791,-4 -4,-4s-4,1.791 -4,4l0,3l-4,0l-2,17l20,0l-2,-17zm-11,-3c0,-1.654 1.346,-3 3,-3s3,1.346 3,3l0,3l-6,0l0,-3zm-4.751,18l1.529,-13l2.222,0l0,1.5c0,0.276 0.224,0.5 0.5,0.5s0.5,-0.224 0.5,-0.5l0,-1.5l6,0l0,1.5c0,0.276 0.224,0.5 0.5,0.5s0.5,-0.224 0.5,-0.5l0,-1.5l2.222,0l1.529,13l-15.502,0z"/>
    </symbol>
   </defs>
   <g>
    <title>Layer 1</title>
    <use id="svg_22" xlink:href="#svg_23" transform="matrix(6.858508887724738,0,0,5.221997683211311,-0.30210759045752955,-0.3423293832612271) " y="0.586452" x="-0.729021"/>
    <g id="svg_21"/>
   </g>
  </symbol>
 </defs>
 <g>
  <title>Layer 1</title>
  <use id="svg_2" xlink:href="#svg_1" transform="matrix(1.2428789363902881,0,0,0.9463151586722427,-133.0686491554958,12.41463159580664) " y="0.58645" x="-0.72902"/>
  <g id="svg_3"/>
  <use x="0" y="0" transform="matrix(0.25,0,0,0.25,0,0) " xlink:href="#svg_8" id="svg_9"/>
  <g id="svg_10"/>
  <use id="svg_17" xlink:href="#svg_16" transform="matrix(6.400000095367432,0,0,6.400000095367432,0,0) " y="0" x="0"/>
  <g id="svg_18"/>
  <use x="0" y="0" transform="matrix(6.400000095367432,0,0,6.400000095367432,0,0) " xlink:href="#svg_24" id="svg_25"/>
  <g id="svg_26"/>
  <g stroke="null" id="svg_30"/>
 </g>
</svg>
