<svg width="25" height="25" xmlns="http://www.w3.org/2000/svg" xmlns:svg="http://www.w3.org/2000/svg" xmlns:xlink="http://www.w3.org/1999/xlink">
 <!-- Created with SVG-edit - http://svg-edit.googlecode.com/ -->
 <defs>
  <symbol id="svg_1" viewBox="0 0 24 24" height="24" width="24" xmlns="http://www.w3.org/2000/svg">
   <path style="fill:#FFFFFF;" d="m20,7l-4,0l0,-3c0,-2.209 -1.791,-4 -4,-4s-4,1.791 -4,4l0,3l-4,0l-2,17l20,0l-2,-17zm-11,-3c0,-1.654 1.346,-3 3,-3s3,1.346 3,3l0,3l-6,0l0,-3zm-4.751,18l1.529,-13l2.222,0l0,1.5c0,0.276 0.224,0.5 0.5,0.5s0.5,-0.224 0.5,-0.5l0,-1.5l6,0l0,1.5c0,0.276 0.224,0.5 0.5,0.5s0.5,-0.224 0.5,-0.5l0,-1.5l2.222,0l1.529,13l-15.502,0z"/>
  </symbol>
 </defs>
 <g>
  <title>Layer 1</title>
  <use x="-0.729021" y="0.586452" transform="matrix(6.858508887724738,0,0,5.221997683211311,-0.30210759045752955,-0.3423293832612271) " xlink:href="#svg_1" id="svg_2"/>
  <g id="svg_3"/>
 </g>
</svg>
