<svg width="23" height="23" >
<!-- Created with SVG-edit - http://svg-edit.googlecode.com/ -->
<defs>
 <symbol viewBox="0 0 24 24" id="svg_1" xmlns="http://www.w3.org/2000/svg">
  <path id="svg_4" d="m20,7l-4,0l0,-3c0,-2.209 -1.791,-4 -4,-4s-4,1.791 -4,4l0,3l-4,0l-2,17l20,0l-2,-17zm-11,-3c0,-1.654 1.346,-3 3,-3s3,1.346 3,3l0,3l-6,0l0,-3zm-4.751,18l1.529,-13l2.222,0l0,1.5c0,0.276 0.224,0.5 0.5,0.5s0.5,-0.224 0.5,-0.5l0,-1.5l6,0l0,1.5c0,0.276 0.224,0.5 0.5,0.5s0.5,-0.224 0.5,-0.5l0,-1.5l2.222,0l1.529,13l-15.502,0z"/>
 </symbol>
</defs>
<g>
 <title>Layer 1</title>
 <use id="svg_2" xlink:href="#svg_1" transform="matrix(1.1203483409280903,0,0,0.853021631449248,-3.2000414830059234,0.991804542717625) " y="0.12775" x="1.046791"/>
 <g id="svg_3"/>
</g>
</svg>
