<?xml version="1.0" encoding="UTF-8"?>
<svg width="11px" height="14px" viewBox="0 0 11 14" version="1.1" xmlns="http://www.w3.org/2000/svg" xmlns:xlink="http://www.w3.org/1999/xlink">
    <!-- Generator: Sketch 54.1 (76490) - https://sketchapp.com -->
    <title>ic_clipboard</title>
    <desc>Created with Sketch.</desc>
    <g id="Page-1" stroke="none" stroke-width="1" fill="none" fill-rule="evenodd">
        <g id="Sign_Up_flow_admin_sharecode_copy_1" transform="translate(-627.000000, -470.000000)" fill="#40B1F3" stroke="#40B1F3">
            <g id="Group-15" transform="translate(300.000000, 137.000000)">
                <g id="Group-16" transform="translate(327.000000, 330.000000)">
                    <g id="Group-17">
                        <g id="ic_clipboard" transform="translate(0.000000, 3.000000)">
                            <path d="M9.77777778,1.77272727 L6.86782201,1.77272727 L6.75106663,1.43693495 C6.55606298,0.876098017 6.05754183,0.5 5.5,0.5 C4.94245817,0.5 4.44393702,0.876098017 4.24893337,1.43693495 L4.13217799,1.77272727 L1.22222222,1.77272727 C0.830773312,1.77272727 0.5,2.1171689 0.5,2.54545455 L0.5,12.7272727 C0.5,13.1555584 0.830773312,13.5 1.22222222,13.5 L9.77777778,13.5 C10.1692267,13.5 10.5,13.1555584 10.5,12.7272727 L10.5,2.54545455 C10.5,2.1171689 10.1692267,1.77272727 9.77777778,1.77272727 Z M5.5,0.772727273 C6.11688442,0.772727273 6.61111111,1.28737655 6.61111111,1.90909091 C6.61111111,2.53080527 6.11688442,3.04545455 5.5,3.04545455 C4.88311558,3.04545455 4.38888889,2.53080527 4.38888889,1.90909091 C4.38888889,1.28737655 4.88311558,0.772727273 5.5,0.772727273 Z M2.94444444,3.95454545 L8.05555556,3.95454545 L8.05555556,2.04545455 L10.2777778,2.04545455 L10.2777778,13.2272727 L0.722222222,13.2272727 L0.722222222,2.04545455 L2.94444444,2.04545455 L2.94444444,3.95454545 Z"></path>
                        </g>
                    </g>
                </g>
            </g>
        </g>
    </g>
</svg>