<svg width="14" height="14" viewBox="0 0 14 14" fill="none" xmlns="http://www.w3.org/2000/svg">
<path d="M7.66665 3.66667H6.33331V6.33333H3.66665V7.66667H6.33331V10.3333H7.66665V7.66667H10.3333V6.33333H7.66665V3.66667ZM6.99998 0.333334C3.31998 0.333334 0.333313 3.32 0.333313 7C0.333313 10.68 3.31998 13.6667 6.99998 13.6667C10.68 13.6667 13.6667 10.68 13.6667 7C13.6667 3.32 10.68 0.333334 6.99998 0.333334ZM6.99998 12.3333C4.05998 12.3333 1.66664 9.94 1.66664 7C1.66664 4.06 4.05998 1.66667 6.99998 1.66667C9.93998 1.66667 12.3333 4.06 12.3333 7C12.3333 9.94 9.93998 12.3333 6.99998 12.3333Z" fill="white"/>
</svg>
